<svg width="88" height="113" viewBox="0 0 88 113" fill="none" xmlns="http://www.w3.org/2000/svg">
  <rect width="88" height="113" fill="none"/>
  <circle cx="44" cy="49" r="28" fill="#C8D5B9"/>
  <circle cx="44" cy="49" r="15" fill="#3B7080"/>
  <circle cx="44" cy="49" r="9.5" fill="#415D43" stroke="#FAF3DD" stroke-width="2"/>
  <path d="M44 0L49.8 37.4L44 34.2L38.2 37.4L44 0Z" fill="#3B7080"/>
  <path d="M44 113L38.2 75.6L44 78.8L49.8 75.6L44 113Z" fill="#3B7080"/>
  <path d="M0 49L30.4 43.2L27.8 49L30.4 54.8L0 49Z" fill="#3B7080"/>
  <path d="M88 49L57.6 54.8L60.2 49L57.6 43.2L88 49Z" fill="#3B7080"/>
  <path d="M27 38C32 31 37.5 25.5 44 22C50.5 25.5 56 31 61 38C54.8 35.8 49.1 34.7 44 34.7C38.9 34.7 33.2 35.8 27 38Z" fill="#415D43"/>
  <path d="M31 40.5C35.5 36.5 39.9 34.5 44 34.5C48.1 34.5 52.5 36.5 57 40.5" stroke="#FAF3DD" stroke-width="1.5" stroke-linecap="round"/>
  <path d="M44 20C53.2 20 61.3 24.2 66.8 31H58.4C54.2 26.7 49.4 24.6 44 24.6C38.6 24.6 33.8 26.7 29.6 31H21.2C26.7 24.2 34.8 20 44 20Z" fill="#415D43" opacity="0.65"/>
  <path d="M44 21.5C46.5 28.2 47.8 35.2 47.8 42.5C47.8 49.9 46.5 57 44 64C41.5 57 40.2 49.9 40.2 42.5C40.2 35.2 41.5 28.2 44 21.5Z" fill="#3B7080"/>
  <path d="M17.5 49C24.2 46.5 31.2 45.2 38.5 45.2C45.9 45.2 53 46.5 60 49C53 51.5 45.9 52.8 38.5 52.8C31.2 52.8 24.2 51.5 17.5 49Z" fill="#3B7080"/>
  <circle cx="30" cy="33.5" r="1.3" fill="#FAF3DD"/>
  <circle cx="58" cy="28.5" r="1.1" fill="#FAF3DD"/>
  <circle cx="22.5" cy="58.5" r="1.1" fill="#FAF3DD"/>
</svg>
